<?xml version="1.0" encoding="UTF-8"?>
<svg width="38px" height="28px" viewBox="0 0 38 28" version="1.1" xmlns="http://www.w3.org/2000/svg" xmlns:xlink="http://www.w3.org/1999/xlink">
    <!-- Generator: Sketch 51.1 (57501) - http://www.bohemiancoding.com/sketch -->
    <title>Group</title>
    <desc>Created with Sketch.</desc>
    <defs></defs>
    <g id="Page-1" stroke="none" stroke-width="1" fill="none" fill-rule="evenodd">
        <g id="Group">
            <path d="M0.0607579415,27.8838 L0.0602356669,0.02485 L25.9443374,0.02485 L37.2816996,8.353625 L27.775432,15.343475 L27.775432,27.8838 L0.0607579415,27.8838 Z M25.0606488,25.15555 L25.0606488,13.9552 L32.7124935,8.353625 L25.0714425,2.75275 L2.7744966,2.75275 L2.7744966,25.15555 L25.0606488,25.15555 Z" id="Shape" fill="#000000" fill-rule="nonzero"></path>
            <polygon id="Path" fill="#00FFC0" points="25.0606488 25.15555 25.0606488 13.9552 32.7124935 8.353625 25.0714425 2.75275 2.77467069 2.75275 2.7744966 25.15555 25.0606488 25.15555"></polygon>
            <polygon id="Shape" fill="#000000" fill-rule="nonzero" points="17.9519697 5.584775 17.9517956 15.4707 9.2928314 5.584775 5.72639246 5.584775 5.72639246 22.3237 9.8842203 22.3237 9.8842203 12.438125 18.5424881 22.3237 22.1094493 22.3237 22.1094493 5.584775"></polygon>
        </g>
    </g>
</svg>