<?xml version="1.0" encoding="UTF-8"?>
<svg width="95px" height="28px" viewBox="0 0 95 28" version="1.1" xmlns="http://www.w3.org/2000/svg" xmlns:xlink="http://www.w3.org/1999/xlink">
    <!-- Generator: Sketch 51.1 (57501) - http://www.bohemiancoding.com/sketch -->
    <title>NestAway Logo Unit Copy 3</title>
    <desc>Created with Sketch.</desc>
    <defs></defs>
    <g id="Page-1" stroke="none" stroke-width="1" fill="none" fill-rule="evenodd">
        <g id="NestAway-Logo-Unit-Copy-3">
            <path d="M37.5676444,5.25850095 C35.7498795,4.83738523 34.9716992,4.57366325 34.6832405,4.12386689 C34.513602,3.8603198 34.5370004,3.58470585 34.5370004,3.58470585 C34.5370004,3.36085697 34.6369921,3.13228626 34.7987703,2.95932802 C35.0800997,2.65835619 35.6027254,2.46161401 36.3512921,2.46161401 C36.8799501,2.46161401 37.4168342,2.56059719 37.9599335,2.73530425 C38.0047196,2.74877016 38.0506024,2.76311048 38.0963025,2.77815033 C38.1171417,2.78497072 38.1377981,2.79144135 38.1580889,2.79878639 C38.5640881,2.93641849 39.0437557,3.14750099 39.6835563,3.49778953 C39.8076776,3.56599349 39.9105941,3.62405429 40.0043706,3.67774305 L41.5530536,1.63896934 C39.9915746,0.64476548 38.5999169,0.0561128541 36.4207561,0.00242409705 C33.7008725,-0.06385616 31.7074366,1.23271858 31.4975821,3.44130266 C31.4862484,3.56162144 31.477474,3.72198818 31.4816784,3.91925502 C31.4816784,3.91925502 31.4855172,4.06493168 31.4937432,4.16898643 C31.6674034,6.29887364 33.4425758,7.09161349 36.1313835,7.71296904 C38.4650104,8.25440355 38.9055588,8.59839633 38.9444952,9.31890994 L38.9444952,9.35476074 C38.9379144,10.1092015 38.2160366,10.5728135 36.9291234,10.5457068 C36.1114582,10.5289181 35.3674616,10.3888377 34.6667885,10.1095512 C34.5521728,10.0640819 34.2865642,9.94551195 34.2847362,9.94498731 C34.1969921,9.90284076 34.1363025,9.87520941 34.0330204,9.82501829 C33.68113,9.6564321 33.238388,9.43083439 32.7119236,9.07092735 L31,11.0201615 C32.6755463,12.3740975 34.7545326,13 36.8693477,13 C39.8740341,13 41.8314582,11.6231544 41.987204,9.37767028 C41.9904944,9.32975262 42,9.25962496 42,9.10572885 C42,8.95148298 41.992688,8.84637893 41.9904944,8.80685561 C41.8758787,6.77787529 40.2950229,5.90154186 37.5676444,5.25850095 Z" id="Shape" fill="#000000" fill-rule="nonzero"></path>
            <polygon id="Shape" fill="#000000" fill-rule="nonzero" points="13.5084961 13 7.61258607 4.66037736 7.61258607 13 5 13 5 0 7.49150395 0 13.4042076 8.35673541 13.4042076 0 16 0 16 12.9998217 13.5084961 12.9998217"></polygon>
            <path d="M39.4163348,15 L36.5843754,15 L31,28 L34.08,28 L35.086189,25.4752331 L38.0001776,25.4752331 L40.9139886,25.4752331 L41.9201776,28 L45,28 L39.4163348,15 Z M38.0001776,23.1151947 L36.0263285,23.1151947 L38.0001776,18.171023 L39.973494,23.1151947 L38.0001776,23.1151947 Z" id="Shape" fill="#000000" fill-rule="nonzero"></path>
            <polygon id="Shape" fill="#000000" fill-rule="nonzero" points="22.9679242 2.43218561 22.9679242 5.25547465 29.0989612 5.25547465 29.0989612 7.68712548 22.9679242 7.68712548 22.9679242 10.5656753 30 10.5656753 30 13 20 13 20 0 29.7936942 0 29.7936942 2.43218561"></polygon>
            <polygon id="Shape" fill="#000000" fill-rule="nonzero" points="49.9761703 2.48958548 49.9761703 13 47.0039467 13 47.0039467 2.48958548 43 2.48958548 43 0 54 0 54 2.48958548"></polygon>
            <polygon id="Shape" fill="#000000" fill-rule="nonzero" points="27.9978993 15 25.3157942 23.5995749 23.0508141 15 21.5 15 19.9493572 15 17.6840345 23.5995749 15.0021007 15 12 15 16.1433273 28 18.9587067 28 21.5 18.7331322 24.0416359 28 26.8541032 28 31 15"></polygon>
            <path d="M8.41597971,15 L5.58402029,15 L0,28 L3.0803551,28 L4.08636652,25.4752331 L7,25.4752331 L9.91416614,25.4752331 L10.92,28 L14,28 L8.41597971,15 Z M6.99982245,23.1151947 L5.02686113,23.1151947 L6.99982245,18.171023 L8.97384908,23.1151947 L6.99982245,23.1151947 Z" id="Shape" fill="#000000" fill-rule="nonzero"></path>
            <polygon id="Shape" fill="#000000" fill-rule="nonzero" points="51.0198789 15 48.0032701 20.7943774 48 20.7884942 47.9967299 20.7943774 44.9797768 15 42 15 46.5957374 23.8791141 46.5957374 28 48 28 49.4039184 28 49.4039184 23.8791141 54 15"></polygon>
            <g id="Group" transform="translate(57.000000, 0.000000)">
                <path d="M0.0607579415,27.8838 L0.0602356669,0.02485 L25.9443374,0.02485 L37.2816996,8.353625 L27.775432,15.343475 L27.775432,27.8838 L0.0607579415,27.8838 Z M25.0606488,25.15555 L25.0606488,13.9552 L32.7124935,8.353625 L25.0714425,2.75275 L2.7744966,2.75275 L2.7744966,25.15555 L25.0606488,25.15555 Z" id="Shape" fill="#000000" fill-rule="nonzero"></path>
                <polygon id="Path" fill="#00FFC0" points="25.0606488 25.15555 25.0606488 13.9552 32.7124935 8.353625 25.0714425 2.75275 2.77467069 2.75275 2.7744966 25.15555 25.0606488 25.15555"></polygon>
                <polygon id="Shape" fill="#000000" fill-rule="nonzero" points="17.9519697 5.584775 17.9517956 15.4707 9.2928314 5.584775 5.72639246 5.584775 5.72639246 22.3237 9.8842203 22.3237 9.8842203 12.438125 18.5424881 22.3237 22.1094493 22.3237 22.1094493 5.584775"></polygon>
            </g>
        </g>
    </g>
</svg>